<svg xmlns="http://www.w3.org/2000/svg" viewBox="0 0 221 221"><defs><linearGradient x1="37.012%" y1="6.202%" x2="75.774%" y2="100%" id="a"><stop stop-color="#FA0" offset="0%"/><stop stop-color="#FF7F00" offset="100%"/></linearGradient><linearGradient x1="37.012%" y1="26.966%" x2="75.774%" y2="76.295%" id="b"><stop stop-color="#FA0" offset="0%"/><stop stop-color="#FF7F00" offset="100%"/></linearGradient><linearGradient x1="37.012%" y1="10.165%" x2="75.774%" y2="95.476%" id="c"><stop stop-color="#FA0" offset="0%"/><stop stop-color="#FF7F00" offset="100%"/></linearGradient><linearGradient x1="41.867%" y1="6.202%" x2="66.139%" y2="100%" id="d"><stop stop-color="#FA0" offset="0%"/><stop stop-color="#FF7F00" offset="100%"/></linearGradient><linearGradient x1="38.736%" y1="6.202%" x2="72.353%" y2="100%" id="e"><stop stop-color="#FA0" offset="0%"/><stop stop-color="#FF7F00" offset="100%"/></linearGradient><linearGradient x1="37.012%" y1="13.676%" x2="75.774%" y2="91.467%" id="f"><stop stop-color="#FA0" offset="0%"/><stop stop-color="#FF7F00" offset="100%"/></linearGradient><linearGradient x1="40.402%" y1="6.202%" x2="69.047%" y2="100%" id="g"><stop stop-color="#FA0" offset="0%"/><stop stop-color="#FF7F00" offset="100%"/></linearGradient><linearGradient x1="37.012%" y1="42.298%" x2="75.774%" y2="58.793%" id="h"><stop stop-color="#FA0" offset="0%"/><stop stop-color="#FF7F00" offset="100%"/></linearGradient></defs><g fill-rule="nonzero" fill="none"><path d="M128.08 109.178l-.48 2.99c-.586 3.647-3.755 6.37-7.497 6.37-4.193 0-7.593-3.395-7.593-7.582a7.56 7.56 0 012.955-6.003l1.437-1.11L69.987 0 67.89.946C26.907 19.42 0 60.213 0 105.902 0 169.469 51.609 221 115.271 221c45.457 0 86.092-26.514 104.767-67.028l.962-2.087-92.92-42.707zm-7.977 13.954c4.995 0 9.352-3.017 11.223-7.403l71.419 32.824c-15.822 32.29-49.047 54.528-87.474 54.528-53.75 0-97.325-43.509-97.325-97.18 0-38.618 22.561-71.974 55.24-87.647l38.087 84.304a12.137 12.137 0 00-3.365 8.398c0 6.725 5.46 12.176 12.195 12.176z" fill="url(#a)"/><path d="M98.946 113.258a2.463 2.463 0 001.558-2.288c0-1.233.24-2.93.722-5.09a1.15 1.15 0 00-.774-1.344L42.974 86.108a6.926 6.926 0 00-1.347-.288c-3.792-.423-7.21 2.302-7.634 6.086-1.016 9.07-1.504 15.223-1.464 18.459.04 3.242.686 9.657 1.936 19.246.074.569.22 1.126.432 1.66 1.411 3.537 5.43 5.263 8.975 3.855l55.074-21.868z" fill="url(#b)"/><path d="M42.344 77.678l56.075 19.055a1.151 1.151 0 001.404-1.6L73.356 41.265a6.887 6.887 0 00-10.874-2.055c-6.364 5.88-10.56 10.016-12.587 12.41-2.088 2.464-5.788 7.698-11.1 15.701a6.9 6.9 0 003.548 10.357z" fill="url(#c)"/><path d="M93.213 180.61a6.898 6.898 0 005.693 7.921c8.514 1.393 14.334 2.152 17.459 2.278 3.22.129 9.306-.236 18.257-1.093a6.899 6.899 0 005.929-8.912l-15.36-49.492a1.15 1.15 0 00-1.286-.795c-1.582.26-2.825.39-3.728.39-.412 0-.972-.027-1.678-.082a1.15 1.15 0 00-1.12.633l-23.531 47.186a6.893 6.893 0 00-.635 1.966z" fill="url(#d)"/><path d="M148.045 178.925a6.885 6.885 0 0010.745 3.252c6.672-5.17 11.104-8.84 13.296-11.011 2.306-2.285 6.48-7.216 12.52-14.794a6.897 6.897 0 00-2.521-10.57l-46.407-21.23a1.153 1.153 0 00-1.22.166l-3.02 2.53a1.152 1.152 0 00-.352 1.25l16.959 50.407z" fill="url(#e)"/><path d="M102.662 119.658a1.154 1.154 0 00-1.38-.333l-53.694 24.406a6.882 6.882 0 00-2.293 10.859c5.75 6.436 9.8 10.686 12.154 12.75 2.55 2.233 8.118 6.294 16.705 12.182.173.118.351.23.534.332 3.328 1.86 7.537.677 9.402-2.643l26.853-47.816a1.15 1.15 0 00-.25-1.433l-4.596-3.98-3.435-4.324z" fill="url(#f)"/><path d="M152.532 75.255c10.069-5.322 15.737-3.313 20.39-9.196 5.426-6.86 3.565-16.594-4.691-20.772-8.256-4.179-18.815-2.072-23.913 1.844-5.098 3.916-10.06 9.965-14.181 19.617-3.184 7.68-4.758 24.848-.732 33.252 4.618-10.788 12.327-19.035 23.127-24.745z" fill="url(#g)"/><path d="M161.808 93.132c-2.835-.34-6.433-.072-11.155 1.387-3.731 1.188-10.585 5.349-12.653 8.69 5.28-1.628 10.439-1.737 15.475-.326 4.696 1.315 5.464 3.394 8.917 3.086 4.026-.358 7.173-3.466 6.523-6.828-.65-3.362-4.272-5.67-7.107-6.01z" fill="url(#h)"/></g></svg>
