<?xml version="1.0" encoding="utf-8"?>
<!-- Generator: Adobe Illustrator 16.0.0, SVG Export Plug-In . SVG Version: 6.00 Build 0)  -->
<!DOCTYPE svg PUBLIC "-//W3C//DTD SVG 1.1//EN" "http://www.w3.org/Graphics/SVG/1.1/DTD/svg11.dtd">
<svg version="1.1" id="Layer_2" xmlns="http://www.w3.org/2000/svg" xmlns:xlink="http://www.w3.org/1999/xlink" x="0px" y="0px"
	 width="673.927px" height="325px" viewBox="0 0 673.927 325" enable-background="new 0 0 673.927 325" xml:space="preserve">
<g>
	<path fill="#F38320" d="M157.014-21.156c6.867,2.944,9.897,4.718,10.33,4.978l1.653,1.13l1.281,0.267
		c1.825,1.148,9.642,6.917,33.038,32.905c16.938,18.815,37.806,43.546,58.757,69.638c45.975,57.252,81.17,106.819,90.589,127.494
		c0.243,3.903-0.29,7.464-0.851,11.207c-1.296,8.656-3.255,21.736,11.663,30.682l1.055,0.632l1.164,0.396
		c6.051,2.058,11.069,3.017,15.794,3.017c5.945,0,19.19-1.918,25.642-17.946c17.298,0.947,62.699,12.638,120.127,30.987
		c59.101,18.884,99.612,34.685,105.601,38.61l3.104,2.859l4.638-0.092c14.7-0.291,30.853-1.248,41.604-1.981
		c-0.597,19.166-5.654,40.152-14.86,61.408c-11.299,26.087-28.911,52.728-50.934,77.042
		c-31.813,35.122-72.234,65.076-116.896,86.622c-50.019,24.131-103.484,37.241-158.924,38.971l-0.461-0.01
		c-42.936-0.86-107.82-2.16-168.883-34.535c-33.362-17.688-62.03-43.006-85.208-75.251c-27.607-38.406-48.336-87.82-61.617-146.898
		c-10.843-47.632-13.305-93.23-7.315-135.529c5.153-36.395,16.556-70.533,33.89-101.467c14.626-26.102,33.114-49.43,54.951-69.335
		C122.167-0.146,140.129-12.72,157.014-21.156 M156.668-33.789C87.052-1.703-34.527,114.021,13.167,323.536
		c58.685,261.039,240.75,263.935,327.482,265.675c210.072-6.402,360.729-173.09,352.861-287.991c0,0-28.877,2.371-53.142,2.852
		c-10.762-9.919-195.579-72.43-235.346-72.43c-3.465,0-5.836,0.476-6.888,1.502c-2.638,12.657-9.134,16.506-16.648,16.506
		c-3.885,0-8.043-1.029-12.079-2.401c-12.965-7.773-3.474-18.069-5.425-34.905C343.775,164.329,191.49-22.149,173.598-25.876
		C173.598-25.876,169.15-28.775,156.668-33.789L156.668-33.789z"/>
</g>
<path fill="#FFFFFF" d="M645.446,97.654"/>
<g>
	<path fill="#F38320" d="M691.146,301.758c7.869,114.901-142.787,281.589-352.86,287.991
		c-86.732-1.739-268.797-4.636-327.481-265.674C-36.892,114.56,84.688-1.166,154.304-33.251
		c12.483,5.014,30.976,27.677,30.976,27.677C142.97,26.247,18.725,127.012,56.284,311.502
		c38.646,182.763,181.003,226.537,276.069,231.522c92.156,1.949,274.559-61.022,303.012-231.695
		C659.63,310.849,691.146,301.758,691.146,301.758z"/>
</g>
<path fill="#F38320" d="M100.672,222.749c-33.497-13.911,41.719-163.692,71.67-168.183c15.18-2.13,19.304,3.872,29.905,14.395
	c13.845,15.466,115.601,129.149,114.598,154.978c-1.16,17.646,2.775,17.613-13.42,18.728
	C237.663,245.418,154.322,240.772,100.672,222.749z"/>
<path fill="#F38320" d="M106.588,257.397c0,0,64.452,11.939,85.842,11.03c21.389-0.909,132.034-8.621,132.034-8.621
	s11.378,5.831,10.012,13.976c-5.083,24.319-115.326,94.746-165.592,120.811c-25.823,13.274-39.448-9.758-47.028-23.564
	C103.17,345.867,82.226,269.024,106.588,257.397z"/>
<path fill="#F38320" d="M203.5,458.944c0,0-3.376,40.27,108.135,40.826c24.403,0.121,59.019-186.675,51.749-203.816
	c-5.232-20.425-122.593,83.804-164.805,133.789C190.117,439.765,198.559,448.606,203.5,458.944z"/>
<path fill="#F38320" d="M370.237,497.173c-2.84-14.639,10.978-201.948,24.837-207.372c20.65-8.095,98.044,144.833,93.056,164.884
	c-2.298,9.398-46.666,32.188-59.647,37.36C415.503,497.218,373.076,511.811,370.237,497.173z"/>
<path fill="#F38320" d="M531.054,419.146c-13.77-10.672-102.761-119.809-105.21-133.835c4.836-17.74-5.17-13.861,4.382-14.509
	c13.859-0.939,71.463,23.501,94.623,32.65c23.161,9.149,50.563,20.684,60.01,32.936
	C592.696,354.572,544.824,429.817,531.054,419.146z"/>
</svg>
